<?xml version="1.0" standalone="no"?>
<!DOCTYPE svg PUBLIC "-//W3C//DTD SVG 20010904//EN"
 "http://www.w3.org/TR/2001/REC-SVG-20010904/DTD/svg10.dtd">
<svg version="1.0" xmlns="http://www.w3.org/2000/svg"
 width="200.000000pt" height="200.000000pt" viewBox="0 0 200.000000 200.000000"
 preserveAspectRatio="xMidYMid meet">
<metadata>
Created by potrace 1.14, written by Peter Selinger 2001-2017
</metadata>
<g transform="translate(0.000000,200.000000) scale(0.100000,-0.100000)"
fill="#000000" stroke="none">
<path d="M926 1468 c3 -18 7 -44 10 -58 3 -14 8 -42 11 -62 l6 -38 -460 0
-459 0 -1 -310 c0 -170 3 -310 6 -311 3 0 234 -1 513 -2 278 -1 508 -4 511 -7
3 -3 7 -21 10 -40 3 -19 9 -56 13 -83 7 -46 18 -66 27 -50 3 5 -1 42 -8 83 -8
41 -14 81 -14 87 -1 10 96 13 436 15 l438 3 0 310 0 310 -488 -1 c-340 0 -490
3 -495 10 -9 15 -31 115 -31 149 -1 16 -7 27 -15 27 -10 0 -13 -9 -10 -32z"/>
</g>
</svg>
